<?xml version="1.0" encoding="utf-8"?>
<!-- Generator: Adobe Illustrator 19.0.0, SVG Export Plug-In . SVG Version: 6.00 Build 0)  -->
<svg version="1.1" id="Layer_1" xmlns="http://www.w3.org/2000/svg" xmlns:xlink="http://www.w3.org/1999/xlink" x="0px" y="0px"
	 viewBox="378 -220.7 862 474" enable-background="new 378 -220.7 862 474" xml:space="preserve">
<g>
	<g>
		<path fill="#A9D7DE" d="M761.5,6.6c-3.5,0.2-6.7,0.4-10,0.6c-3.7,0.2-7.4,1.3-11.2,0.3c-4.4-1.2-7.7-3.9-8.2-9.4
			c-0.2-2.1,0.4-4.3,1.6-6.1c3.9-5.9,8.2-11.6,13.2-16.6c3.4-3.3,6.6-6.8,10-10c5.7-5.3,11.6-10.5,17.5-15.6
			c7.6-6.6,15.6-12.7,23.8-18.5c9.8-7,19.8-13.4,30.2-19.5c5.9-3.4,12.2-6.1,18.6-8.2c5.3-1.7,10.5-0.9,15.3,1.7
			c5.1,2.8,9.7,6.4,14.3,10.1c5.1,4.2,9.9,8.6,14.3,13.5c4.5,4.9,8.9,9.8,13,15c6.8,8.6,13.5,17.4,20.1,26.2
			c5.5,7.4,10.9,14.8,16.1,22.3c3.6,5.1,6.5,10.7,8.8,16.5c0.8,1.9,1.1,4,1.3,6c0.3,4.8-2.8,8.2-6.7,9.7c-1.8,0.7-3.7,1-5.6,1
			c-4.9,0.3-9.7-0.4-14.6-0.8c-1.9-0.2-4,0.2-5.9,0.5c-1.3,0.2-2.5,0.6-3.9,1c-0.1,0.6-0.2,1.2-0.2,1.8c0,3.4,0,6.7-0.1,10.1
			c-0.1,5.3-0.4,10.7-0.4,16c0,8.5,0.3,16.9,0.3,25.4c0,5.8-0.2,11.7-0.5,17.5c-0.2,4.4-0.6,8.8-1.4,13c-1.1,5.5-4.6,9.2-9.9,11.1
			c-3.2,1.1-6.5,1.6-9.8,1.9c-11.9,1.1-22.9-1.8-33.6-6.6c-5.8-2.6-8.5-7.4-8.5-13.8c0-5.3,0.6-10.5,1.4-15.7c1-6.7,2-13.4,3-20.1
			c0.5-3.5,1.1-7.1,1.4-10.6c0.3-3.6-1.5-6.1-4.7-7.7c-3.7-1.9-7.7-2.9-11.9-3.5c-5.6-0.8-11.1-0.4-16.6,0.8c-4.7,1-6.9,4.1-7.6,8.5
			c-1.4,8.6-2.5,17.3-4,26c-1.1,6.1-2,12.3-4.6,18c-2.1,4.9-5.3,8.7-10.1,11.1c-5.5,2.7-11.3,4.6-17.6,5c-5.6,0.4-10.9-0.4-16.1-2.4
			c-7.3-2.8-10.8-8.5-12-16c-0.8-4.7,0.1-9.2,0.9-13.7c1.3-7.5,2.6-15.1,4-22.6c1.5-8.7,3.2-17.4,4.7-26.1c0.9-4.9,1.9-9.7,2.4-14.6
			C762.4,15.1,762.5,10.9,761.5,6.6z M839.1-76.3c1.9,0.7,3.3,1.4,4.7,1.7c2.8,0.6,5.7,0.9,8.4,1.5c5.8,1.2,11.3,3.3,16.1,6.9
			c3.7,2.8,6.9,6.1,10.2,9.4c0.6,0.6,1.2,1.1,2.1,2c0-1.1,0.1-1.7,0-2.3c-0.2-1.1-0.5-2.2-0.8-3.2c-2.9-8.7-8-15.9-14.9-21.8
			c-3.4-2.9-7.3-4.6-12.1-3.9c-5,0.8-9,3-12.2,6.9C840.1-78.5,839.7-77.5,839.1-76.3z M778.8,101.4c3.6,2.5,7,4,10.7,3.4
			c4.8-0.7,6.8-2.7,8.1-7c1.1-3.8,0.4-7.4-1.3-10.8c-0.2-0.4-0.6-0.8-1.2-1.4C792.1,93.4,787.4,99,778.8,101.4z M886.8,112.9
			c1.6,1.9,3.7,2.5,5.8,2.9c5.2,0.9,10.2-1.5,11.2-7.1c0.3-1.9,0.5-3.8,0.3-5.7c-0.2-2-0.8-4-2.3-5.7c-2,3.1-3.6,6.4-6,8.9
			C893.3,108.8,890,110.6,886.8,112.9z"/>
		<path fill="#A9D7DE" d="M504.7-118.4c-0.4,3.1-0.6,6.2-1.3,9.2c-1.6,7.4-6.3,11.8-13.6,13.5c-5.2,1.2-10.4,1.2-15.7,0.6
			c-1.9-0.2-3.8-0.2-5.7-0.5c-8.4-1.3-13.2-6.6-15.4-14.5c-1.6-5.7-1.8-11.5-0.1-17.2c3.1-10.4,9.8-17.5,20.6-19.5
			c8.5-1.6,16.4,0.5,22.8,6.6c5.2,5,7.8,11.2,7.9,18.4c0,1.1,0,2.2,0,3.4C504.5-118.4,504.6-118.4,504.7-118.4z M494.8-117.8
			c0.2-0.4,0.4-0.6,0.4-0.8c0-2.5,0.3-5.1,0-7.6c-0.4-2.6-1.1-5.2-2.2-7.5c-2-4.1-6.5-6-10-3.7c0.3,1.5,6.8,12.8,10.7,18.4
			C493.9-118.5,494.4-118.2,494.8-117.8z"/>
		<path fill="#A9D7DE" d="M1180.9,119.8c-8.1,0.2-16.2-6-18.8-14.9c-1.5-4.9-1.3-9.9,0.3-14.8c1.5-4.8,4.8-7.9,9.6-9.3
			c4.6-1.4,9.4-1.7,14.1-0.4c8.2,2.2,13.2,7.3,14.9,15.7c1.5,7.3-1.8,16.2-8.9,20.7C1188.8,118.9,1185.2,119.9,1180.9,119.8z
			 M1193.6,102.7c0.2,0,0.3-0.1,0.5-0.1c0-2.3,0.2-4.6,0-6.9c-0.3-3.2-1.5-6-4.1-8c-1.7-1.3-3.7-1.3-5.6,0.2
			C1187.4,92.8,1190.5,97.7,1193.6,102.7z"/>
		<path fill="#A9D7DE" d="M660.2,240.1c-2.7-0.4-5.2-0.7-7.7-1.2c-5.5-1.1-8.2-4.8-9.2-10c-0.4-1.9-0.5-3.9-0.6-5.9
			c-0.3-6.7,3-11.6,8.4-15.1c6.9-4.5,15.7-3.4,21.2,2.4c3.2,3.4,4.9,7.5,4.9,12.1c0,2.5-0.1,5-0.5,7.4c-0.9,4.8-3.6,8.2-8.6,9.2
			C665.4,239.4,662.8,239.7,660.2,240.1z M670.5,225c1.2-5.5,0.7-10.5-4.5-14c-1.1,0.3-2.1,0.6-3.5,1
			C665.3,216.5,667.9,220.7,670.5,225z"/>
		<path fill="#A9D7DE" d="M727.3,26.7c2.8-0.2,5.5,0.6,8.2,1.8c8.2,3.8,10.8,13.9,6.2,21.6c-1.6,2.6-3.5,4.9-6.1,6.6
			c-3.3,2.3-6.9,3.4-11,2.7c-3.7-0.6-7.1-1.9-10.1-4c-4-2.9-6.9-8.9-4.9-15.9C711.9,31.8,719.4,26.2,727.3,26.7z M726.4,32.9
			c3.1,4.1,6,8,9.2,12.2c1.1-3.5,0.7-6.4-0.6-9.2C733.5,32.6,730.4,31.5,726.4,32.9z"/>
		<path fill="#A9D7DE" d="M924.3,86.2c0.1-1.3,0.1-2.6,0.5-3.8c1.5-5.5,4.6-7.7,10.3-8.6c3.4-0.5,6.8,0,10,1.8
			c7.9,4.5,9.3,14,4.5,20.3c-4.1,5.5-11.9,7.6-17.9,3.7C926.9,96.5,924.2,92.1,924.3,86.2z M946.5,89.2c0.2-0.1,0.3-0.1,0.5-0.2
			c-0.1-3.4,0.7-7-2.5-9.4c-1.3,0-2.3,0-3.7,0C942.7,83,944.6,86.1,946.5,89.2z"/>
		<path fill="#A9D7DE" d="M413.6-41.4c3.3,0.1,6.4,0.9,8.9,3c2.9,2.4,4.6,6.5,3.4,10.8c-1.5,5.4-6.4,10.1-12.7,10.4
			c-4.9,0.2-10.2-2.6-12.4-8.2c-1.8-4.6,0.2-10.3,4.5-13.3C407.8-40.4,410.5-41.5,413.6-41.4z M419.4-28.6c0.2-0.1,0.3-0.2,0.5-0.3
			c0.2-3.1,0.2-6.1-2.6-8.1c-1.4,0-2.6,0-4.3,0C415.3-33.9,417.3-31.3,419.4-28.6z"/>
		<path fill="#A9D7DE" d="M919.5-60c-1.6-0.2-3.2-0.3-4.7-0.7c-3-0.8-4.9-2.6-6-5.6c-2.5-7.5,2.4-14.3,7.9-15.6
			c6.1-1.5,12.5,2.2,13.4,9.2c0.2,1.8,0.2,3.7,0,5.5c-0.6,4.6-3,6.4-8,7c-0.9,0.1-1.8,0-2.6,0C919.5-60.2,919.5-60.1,919.5-60z"/>
		<path fill="#A9D7DE" d="M1214.8,49.6c2.3,1.3,4.3,2.3,6.2,3.5c5.8,3.8,5.4,12.1,1.6,16.1c-6.1,6.3-14.6,3.3-17.5-2.8
			c-2.2-4.6-1.3-9.9,3.7-13.5C1210.5,51.6,1212.7,50.7,1214.8,49.6z"/>
		<path fill="#A9D7DE" d="M1041.2-204c0.4,4.5-4,9.9-9.7,9.8c-1.5,0-3-0.2-4.5-0.5c-4.2-1-6.5-5.1-5.8-9.4c0.8-4.7,3.4-7.7,7.8-9
			c4.4-1.3,9.7,1.1,11.6,5.7C1041-206.2,1041-205.1,1041.2-204z"/>
	</g>
</g>
<rect x="661.9" y="129.1" fill="none" width="335.8" height="95.7"/>
<g enable-background="new    ">
	<path fill="#A9D7DE" d="M718.6,174.3h4.9c0.3,0.7,0.4,1.3,0.4,2c0,0.6-0.1,1-0.3,1.2c-0.2,0.2-0.6,0.3-1.2,0.3h-16.1
		c-0.3-0.8-0.4-1.5-0.4-2.2c0-0.5,0.1-0.8,0.4-1s0.6-0.3,1.2-0.3h3.1c0.2-3.2,0.3-11.3,0.3-24.4c0-7-0.1-12.1-0.3-15.2h-4
		c-0.3-0.8-0.4-1.5-0.4-2.2c0-0.5,0.1-0.8,0.4-1s0.6-0.3,1.2-0.3h14.7c6.9,0,11.9,1,14.8,2.9s4.4,4.9,4.4,9.1
		c0,6.3-3.8,10.6-11.3,12.9c2.2,0.7,3.9,1.9,5.3,3.6c1.3,1.8,2.8,4.3,4.3,7.6c1.5,3.3,2.7,5.3,3.5,6s2.1,1.1,3.6,1
		c0.5,1.6,0.4,2.8-0.2,3.3c-0.6,0.6-2.1,0.9-4.4,0.9c-2.7,0-4.7-0.4-5.8-1.1c-1.2-0.7-2.4-3.2-3.7-7.5c-1.3-4.3-2.6-7.4-4.1-9.1
		c-1.4-1.8-3.5-2.6-6.2-2.6c-1.4,0-2.8,0.1-4.2,0.3C718.3,166.4,718.4,171.6,718.6,174.3z M718.3,153.9h2.9c4,0,7-0.7,9-2.1
		c2-1.4,3.1-3.5,3.1-6.2c0-3.2-0.9-5.6-2.8-7.1s-4.5-2.3-7.9-2.3c-1.6,0-2.9,0.1-4,0.3c-0.2,2-0.3,6.6-0.3,13.8V153.9z"/>
	<path fill="#A9D7DE" d="M766.8,143.5c4.2,0,7.4,1,9.4,3c2.1,2,3.1,5.3,3.1,9.9c0,2-0.4,3.4-1.1,4.2c-0.7,0.8-2.3,1.2-4.8,1.2h-15.1
		c0,3.7,0.8,6.6,2.2,8.8c1.4,2.1,4,3.2,7.7,3.2c3.4,0,6.6-0.9,9.5-2.7c1,1,1.5,2,1.5,3.1c0,1.5-1.3,2.6-3.8,3.2
		c-2.5,0.6-5.4,0.9-8.5,0.9c-5.8,0-10-1.2-12.6-3.7s-3.8-6.6-3.8-12.5c0-5.8,1.4-10.3,4.3-13.7S761.7,143.5,766.8,143.5z M765.5,148
		c-2.3,0-4,0.8-5.2,2.4c-1.2,1.6-1.8,4.2-1.9,7.6h3.5c3.7,0,6.3-0.1,7.6-0.2c1.4-0.1,2.1-0.4,2.4-0.7s0.3-1,0.3-1.9
		c0-2.3-0.6-4-1.7-5.3C769.3,148.7,767.7,148,765.5,148z"/>
	<path fill="#A9D7DE" d="M808,173.5c4.1,0,7.7-1,10.9-3.1c1.2,1.3,1.8,2.6,1.8,3.9c0,1.3-1.5,2.3-4.4,3.1c-2.9,0.8-6.5,1.1-10.6,1.1
		c-6.6,0-11.4-1.5-14.6-4.6c-3.1-3.1-4.7-8.7-4.7-16.9c0-9.1,1.8-15.8,5.5-20.1c3.7-4.3,9.1-6.4,16.2-6.4c4,0,7,0.3,9,1
		c2,0.6,3,1.7,3,3.2c0,1.3-0.6,2.5-1.9,3.7c-4.1-2-8-2.9-11.8-2.9c-3.9,0-6.8,1.4-8.8,4.2c-2,2.8-2.9,7.5-2.9,14.2
		c0,7.4,1,12.5,3.1,15.4C800.1,172.1,803.4,173.5,808,173.5z"/>
	<path fill="#A9D7DE" d="M830.9,158.2c0-9.6,0-15.8-0.1-18.4c-0.1-2.6-0.3-4.3-0.5-5.1c-0.2-0.8-0.6-1.3-1.2-1.5
		c-0.5-0.2-1.3-0.3-2.2-0.3c-0.3-0.7-0.4-1.4-0.4-2.1c0-0.7,0.3-1.2,0.9-1.3c0.6-0.2,2.5-0.3,5.6-0.3c1.8,0,3,0.1,3.7,0.3
		c0.6,0.2,1,0.5,1.1,1c0.1,0.5,0.1,1.3,0.1,2.4v28.6c0,5.5,0.1,9.8,0.3,13h3.8c0.3,0.6,0.4,1.2,0.4,1.9c0,0.6-0.1,1-0.4,1.3
		c-0.3,0.2-0.7,0.3-1.4,0.3h-13.6c-0.3-0.7-0.4-1.4-0.4-2.1c0-0.5,0.1-0.9,0.4-1.1c0.2-0.2,0.7-0.4,1.2-0.4h2.5
		C830.8,171.1,830.9,165.8,830.9,158.2z"/>
	<path fill="#A9D7DE" d="M864,143.5c4.2,0,7.4,1,9.4,3c2.1,2,3.1,5.3,3.1,9.9c0,2-0.4,3.4-1.1,4.2c-0.7,0.8-2.3,1.2-4.8,1.2h-15.1
		c0,3.7,0.8,6.6,2.2,8.8c1.4,2.1,4,3.2,7.7,3.2c3.4,0,6.6-0.9,9.5-2.7c1,1,1.5,2,1.5,3.1c0,1.5-1.3,2.6-3.8,3.2
		c-2.5,0.6-5.4,0.9-8.5,0.9c-5.8,0-10-1.2-12.6-3.7s-3.8-6.6-3.8-12.5c0-5.8,1.4-10.3,4.3-13.7S858.8,143.5,864,143.5z M862.7,148
		c-2.3,0-4,0.8-5.2,2.4c-1.2,1.6-1.8,4.2-1.9,7.6h3.5c3.7,0,6.3-0.1,7.6-0.2c1.4-0.1,2.1-0.4,2.4-0.7s0.3-1,0.3-1.9
		c0-2.3-0.6-4-1.7-5.3C866.5,148.7,864.8,148,862.7,148z"/>
	<path fill="#A9D7DE" d="M903.4,175.1c-1.9,1.1-3.9,2-5.9,2.5c-2,0.6-4,0.9-5.9,0.9c-3.1,0-5.4-0.7-6.9-2.2s-2.3-3.6-2.3-6.4
		c0-3.5,1.2-6.2,3.7-8c2.5-1.8,6.3-2.8,11.5-2.8h5c-0.1-4-0.7-6.8-1.7-8.4c-1-1.6-2.8-2.4-5.4-2.4c-1.4,0-2.7,0.1-3.9,0.4
		c-0.7,1.3-1.1,2-1.2,2.1c-0.1,0.1-0.8,0.3-2,0.6c-1.2,0.3-2,0.3-2.5-0.2s-0.9-1.2-1.4-2.3c-0.5-1.1-0.7-2-0.7-2.7
		c0-0.5,0.2-0.8,0.6-1.1c0.4-0.2,1.9-0.6,4.6-0.9c2.7-0.4,5.5-0.5,8.6-0.5c4,0,7,0.7,8.9,2.1c1.9,1.4,2.9,3.9,2.9,7.7v10.5
		c0,4.9,0.2,7.9,0.6,8.9c0.4,1.1,1.1,1.5,2.1,1.3c0.3,0.5,0.4,1,0.4,1.5c0,0.8-0.5,1.4-1.5,1.8s-2.3,0.6-3.9,0.6
		c-0.8,0-1.4-0.1-1.8-0.3C905,177.7,904.3,176.7,903.4,175.1z M902.7,163.5c-2-0.3-4-0.5-6.1-0.5c-2.6,0-4.4,0.4-5.5,1.3
		c-1,0.9-1.6,2.2-1.6,4.1c0,1.8,0.5,3.2,1.4,4.1c0.9,0.9,2.4,1.4,4.3,1.4c1.5,0,2.9-0.3,4.2-0.9c1.3-0.6,2.2-1.4,2.6-2.5
		c0.4-1.1,0.6-2.7,0.6-5V163.5z"/>
	<path fill="#A9D7DE" d="M928.3,148c2.3-1.5,4.5-2.6,6.7-3.3c2.2-0.7,4.2-1.1,5.9-1.1c3,0,5.3,0.7,6.9,2.1c1.5,1.4,2.3,4.1,2.3,8
		c0,12.3,0.2,18.8,0.5,19.5c0.4,0.7,1.2,1.1,2.4,1.1c0.2,0.7,0.4,1.3,0.4,2c0,0.6-0.2,1-0.6,1.2c-0.4,0.2-1.1,0.3-2.2,0.3
		c-3.2,0-5.1,0-5.8-0.1c-0.7-0.1-1.2-0.3-1.4-0.7c-0.3-0.4-0.4-1.1-0.4-2v-14.7c0-4.7-0.5-7.8-1.5-9.4c-1-1.5-2.6-2.3-4.8-2.3
		c-1.9,0-3.5,0.5-4.9,1.6c-1.4,1.1-2.1,3-2.1,5.8v7.2c0,4,0.1,7.7,0.2,11.1h3.8c0.3,0.6,0.4,1.2,0.4,1.9c0,0.6-0.1,1-0.4,1.3
		c-0.3,0.2-0.7,0.3-1.4,0.3H919c-0.3-0.7-0.4-1.4-0.4-2.1c0-0.5,0.1-0.9,0.4-1.1c0.2-0.2,0.7-0.4,1.2-0.4h2.4
		c0.2-3.6,0.3-8.1,0.3-13.3c0-6.7-0.3-10.6-0.8-11.7c-0.5-1.1-1.5-1.6-3-1.6c-0.3-0.6-0.4-1.3-0.4-2c0-0.6,0.2-1,0.7-1.2
		s3.5-0.3,9.1-0.5C928.5,145,928.5,146.4,928.3,148z"/>
</g>
</svg>
